<svg class="cf-icon-svg" width="64" height="64" fill="#000000" version="1.1" viewBox="-5.5 0 1.52 1.52" xml:space="preserve" xmlns="http://www.w3.org/2000/svg" xmlns:xlink="http://www.w3.org/1999/xlink"><g transform="translate(-.02071872 -.0188352)" stroke="#000"><path d="m-4.2946906 0.34786079v0.82427771c-4.05e-5 0.019407-0.015763 0.035129-0.035169 0.035169h-0.6904147c-0.022263-0.00123-0.043464-0.00992-0.060194-0.024655l-0.07967-0.077963c-0.015058-0.016429-0.023954-0.037571-0.025171-0.059823v-0.69700524c4.07e-5 -0.0194357 0.015808-0.0351696 0.035244-0.0351688h0.8202801c0.019377 8.134e-5 0.035054 0.015791 0.035095 0.0351683zm-0.1634784 0.118133c-4.06e-5 -0.0194064-0.015763-0.0351283-0.035169-0.0351688h-0.4931746c-0.019406 4.05e-5 -0.035128 0.0157624-0.035169 0.0351688v0.23781362c4.06e-5 0.0194064 0.015763 0.0351283 0.035169 0.0351688h0.4931005c0.019435 2.5e-7 0.035202-0.0157335 0.035243-0.0351688zm-0.03702 0.43557209c-4.05e-5 -0.0194185-0.015751-0.0351616-0.035169-0.0352427h-0.4198758c-0.019418 8.115e-5 -0.035128 0.0158242-0.035169 0.0352427v0.25484292c4.05e-5 0.019406 0.015763 0.035128 0.035169 0.035169h0.4198017c0.019406-4.05e-5 0.035128-0.015763 0.035169-0.035169zm-0.051111-4.848e-4h-0.089588v0.16288632h0.089588z" fill="#808000" stroke-width=".035625"/><path transform="matrix(.02375 0 0 .02375 -5.5 0)" d="m22.811801 49.762323c-0.124637-0.03735-0.297808-0.13234-0.384823-0.211088-0.389449-0.352446-0.37989-0.194203-0.37989-6.288905v-5.717047l0.311522-0.33398 0.311523-0.33398 9.225032-0.02009c9.094905-0.01981 9.228679-0.01786 9.483503 0.13806 0.142158 0.08698 0.329385 0.274462 0.41606 0.416621 0.153337 0.251492 0.157599 0.410496 0.157887 5.890438 3.37e-4 6.387201 0.03737 6.017277-0.636997 6.363075l-0.347987 0.178438-8.964609-0.0068c-4.930534-0.0037-9.066584-0.03738-9.191221-0.07473zm17.713602-8.364553v-3.767039h-4.520446v7.534077h4.520446z" fill="#000" stroke-width="1.5" style="paint-order:normal"/><path d="m-4.6746224 1.0161586v-0.10190301h0.112808v0.20380591h-0.112808z" fill="#fff" stroke-width=".035625" style="paint-order:normal"/></g></svg>
