<svg width="64" height="64" version="1.1" viewBox="0 0 64 64" xmlns="http://www.w3.org/2000/svg">
 <path d="m37.890625 23.25v14h10.5v3.5h7v-3.5h3.5v-3.5h-3.5v-10.5h-7v10.5h-3.5v-10.5h-7zm-24.5 5.876953v11.623047h21v-10.5h-14v-1.123047h-7zm-10.5 1.123047v10.5h7v-10.5h-7zm17.5 3.5h7v3.5h-7v-3.5z"/>
 <path d="m14.186245 17.310744-3e-3 5.578626-3e-3 5.57863-5.6241726-2.791602-5.6241647-2.7916 5.6272385-2.787027zm20.011428 7.035488h-23.776687c-0.188988 0-0.341176-0.135365-0.341176-0.303504v-2.306697c0-0.168139 0.152144-0.303505 0.341176-0.303505h23.776687c0.188988 0 0.341174 0.135366 0.341174 0.303505v2.306689c0 0.168139-0.152144 0.303505-0.341174 0.303505zm-10.913222-4.302976 3e-3 -5.578625 3e-3 -5.5786332 5.624161 2.7916052 5.624165 2.791601-5.627238 2.787026zm-20.01143-7.035488h23.776686c0.18899 0 0.341174 0.135365 0.341174 0.303504v2.306697c0 0.168139-0.152142 0.303504-0.341174 0.303504h-23.776686c-0.1889887 0-0.341174-0.135365-0.341174-0.303504v-2.306689c0-0.16814 0.1521439-0.303505 0.341174-0.303505z" fill="#f00" stroke-width="0"/>
</svg>
