<svg class="cf-icon-svg" width="64" height="64" fill="#000000" version="1.1" viewBox="-5.5 0 1.52 1.52" xml:space="preserve" xmlns="http://www.w3.org/2000/svg" xmlns:xlink="http://www.w3.org/1999/xlink"><g id="invisible_box" transform="matrix(.025235 0 0 .025235 -5.3296299 .17037012)" data-name="invisible box"><rect width="48" height="48" fill="none"/></g><g id="icon" transform="matrix(.04970071 0 0 .04970071 -5.3364085 .17112556)">
    <path d="m19 8h-14c-1.66 0-3 1.34-3 3v6h4v4h12v-4h4v-6c0-1.66-1.34-3-3-3zm-3 11h-8v-5h8zm3-7c-0.55 0-1-0.45-1-1s0.45-1 1-1 1 0.45 1 1-0.45 1-1 1zm-1-9h-12v4h12z" fill="#212121"/>
  </g></svg>
