<?xml version="1.0" encoding="UTF-8"?>
<!DOCTYPE svg PUBLIC "-//W3C//DTD SVG 1.1//EN" "http://www.w3.org/Graphics/SVG/1.1/DTD/svg11.dtd">
<svg version="1.1" id="Layer_1" xmlns="http://www.w3.org/2000/svg" xmlns:xlink="http://www.w3.org/1999/xlink" x="0px" y="0px" width="24px" height="24px" viewBox="0 0 24 24" enable-background="new 0 0 24 24" xml:space="preserve">
  <g id="icon">
    <path d="M11.5,2C6.81,2,3,5.81,3,10.5S6.81,19,11.5,19h0.5v3c4.86,-2.34,8,-7,8,-11.5C20,5.81,16.19,2,11.5,2zm1,14.5h-2v-2h2v2zm0,-3.5h-2c0,-3.25,3,-3,3,-5,0,-1.1,-0.9,-2,-2,-2s-2,0.9,-2,2h-2c0,-2.21,1.79,-4,4,-4s4,1.79,4,4c0,2.5,-3,2.75,-3,5z" fill="#212121"/>
  </g>
</svg>
