<?xml version="1.0" encoding="UTF-8"?>
<!DOCTYPE svg PUBLIC "-//W3C//DTD SVG 1.1//EN" "http://www.w3.org/Graphics/SVG/1.1/DTD/svg11.dtd">
<svg version="1.1" id="Layer_1" xmlns="http://www.w3.org/2000/svg" xmlns:xlink="http://www.w3.org/1999/xlink" x="0px" y="0px" width="24px" height="24px" viewBox="0 0 24 24" enable-background="new 0 0 24 24" xml:space="preserve">
  <g id="icon">
    <path d="M12,4.5C7,4.5,2.73,7.61,1,12c1.73,4.39,6,7.5,11,7.5s9.27,-3.11,11,-7.5c-1.73,-4.39,-6,-7.5,-11,-7.5zM12,17c-2.76,0,-5,-2.24,-5,-5s2.24,-5,5,-5,5,2.24,5,5,-2.24,5,-5,5zm0,-8c-1.66,0,-3,1.34,-3,3s1.34,3,3,3,3,-1.34,3,-3,-1.34,-3,-3,-3z" fill="#212121"/>
  </g>
</svg>
