<?xml version="1.0" encoding="UTF-8" standalone="no"?>
<svg
   width="24"
   height="24"
   viewBox="0 0 1.44 1.44"
   fill="none"
   xmlns="http://www.w3.org/2000/svg"
   xmlns:svg="http://www.w3.org/2000/svg">
  <path
     fill="#1a5fb4"
     d="M 1.0511296,1.1698557 A 0.162,0.162 0 0 0 1.1698557,1.0511296 L 1.275141,0.62184227 A 0.162,0.162 0 0 0 1.2323766,0.46869849 L 0.9713015,0.20762335 A 0.162,0.162 0 0 0 0.81815774,0.16485896 L 0.38887038,0.27014433 A 0.162,0.162 0 0 0 0.27014433,0.38887039 L 0.16485896,0.81815774 a 0.162,0.162 0 0 0 0.0427644,0.15314376 l 0.26107514,0.2610751 a 0.162,0.162 0 0 0 0.15314378,0.042764 z" />  
  <path fill="#ffffff"
     d="m 0.56437498,0.48437498 h 0.0878125 v 0.2975 q 0,0.0384375 0.006562,0.054375 0.006875,0.0159375 0.0221875,0.025625 0.015625,0.009375 0.0375,0.009375 0.023125,0 0.0396875,-0.010625 0.016875,-0.010625 0.023125,-0.026875 0.006563,-0.0165625 0.006563,-0.0628125 v -0.2865625 h 0.0878125 v 0.2740625 q 0,0.069375 -0.007813,0.09625 -0.007813,0.026875 -0.03,0.051875 -0.021875,0.025 -0.050625,0.0371875 -0.02875,0.011875 -0.066875,0.011875 -0.05,0 -0.0871875,-0.0228125 -0.036875,-0.023125 -0.0528125,-0.0575 -0.0159375,-0.0346875 -0.0159375,-0.11687499 z"/>
</svg>
