<svg width="64" height="64" version="1.1" viewBox="0 0 64 64" xmlns="http://www.w3.org/2000/svg">
 <g transform="matrix(.97826735 0 0 1 .55091259 .11640626)" stroke-width="0">
  <g transform="matrix(.9769978 0 0 1 -.63692389 0)">
   <path d="m11.613748 24.445219h34.188651c0.259079 0 0.467652 0.208573 0.467652 0.467652v3.554152c0 0.259079-0.208573 0.467651-0.467652 0.467651h-34.188651c-0.259079 0-0.467652-0.208572-0.467652-0.467651v-3.554152c0-0.259079 0.208573-0.467652 0.467652-0.467652z" fill="#1a1a1a"/>
   <path transform="matrix(5.5434001 2.3353759 .001333 4.0401523 -164.20927 -113.07763)" d="m37.067465 13.725056 7.24e-4 -1.528539 7.23e-4 -1.52854 1.323392 0.764897 1.323393 0.764896-1.324116 0.763643z" fill="#f00"/>
  </g>
  <g transform="matrix(-.9769978 0 0 -1 64.93241 61.229393)">
   <path d="m11.613748 24.445219h34.188651c0.259079 0 0.467652 0.208573 0.467652 0.467652v3.554152c0 0.259079-0.208573 0.467651-0.467652 0.467651h-34.188651c-0.259079 0-0.467652-0.208572-0.467652-0.467651v-3.554152c0-0.259079 0.208573-0.467652 0.467652-0.467652z" fill="#1a1a1a"/>
   <path transform="matrix(5.5434001 2.3353759 .001333 4.0401523 -164.20927 -113.07763)" d="m37.067465 13.725056 7.24e-4 -1.528539 7.23e-4 -1.52854 1.323392 0.764897 1.323393 0.764896-1.324116 0.763643z" fill="#f00"/>
  </g>
 </g>
</svg>
