<?xml version="1.0" encoding="UTF-8" standalone="no"?>
<svg
   width="24"
   height="24"
   viewBox="0 0 1.44 1.44"
   xmlns="http://www.w3.org/2000/svg"
   xmlns:svg="http://www.w3.org/2000/svg">
  <path
     fill="#ed333b"
     d="M 1.0511296,1.1698559 A 0.162,0.162 0 0 0 1.1698557,1.0511298 L 1.2751411,0.62184245 A 0.162,0.162 0 0 0 1.2323766,0.46869867 L 0.9713015,0.20762353 A 0.162,0.162 0 0 0 0.8181578,0.16485913 L 0.3888704,0.2701445 A 0.162,0.162 0 0 0 0.2701444,0.38887056 L 0.164859,0.81815791 A 0.162,0.162 0 0 0 0.207623,0.97130167 L 0.4686981,1.2323768 a 0.162,0.162 0 0 0 0.1531438,0.042764 z" />
  <path
     fill="#ffffff"
     d="m 0.64124975,0.478593 0.0743752,0.0371876 -0.0803127,0.1562505 q 0.0584377,0 0.0993753,0.0418751 0.0409376,0.0418751 0.0409376,0.10406282 0,0.0600002 -0.0421876,0.10187533 -0.0418751,0.0415626 -0.10125032,0.0415626 -0.0621877,0 -0.10375033,-0.0431251 -0.0412501,-0.0434376 -0.0412501,-0.0993753 0,-0.0212501 0.00625,-0.0428126 0.006563,-0.0215626 0.0296876,-0.0662502 z m -0.0109375,0.27625087 q -0.0243751,0 -0.0409376,0.0178126 -0.0165625,0.0175001 -0.0165625,0.0440626 0,0.0265626 0.0171876,0.0446876 0.0175,0.0181251 0.0406251,0.0181251 0.0243751,0 0.0418751,-0.0178126 0.0175,-0.0178126 0.0175,-0.0450001 0,-0.0265626 -0.0171876,-0.0440626 -0.0168751,-0.0178126 -0.0425001,-0.0178126 z" />
  <path
     fill="#ffffff"
     d="m 0.90375059,0.8607817 q 0.0203126,0 0.0346876,0.014375 0.014375,0.0140626 0.014375,0.0343751 0,0.0203126 -0.014375,0.0346876 -0.014375,0.014375 -0.0346876,0.014375 -0.0203126,0 -0.0346876,-0.014375 -0.0143751,-0.014375 -0.0143751,-0.0346876 0,-0.0203126 0.0143751,-0.0343751 0.014375,-0.014375 0.0346876,-0.014375 z" />
</svg>
