<svg class="cf-icon-svg" width="64" height="64" fill="#000000" version="1.1" viewBox="-5.5 0 1.52 1.52" xml:space="preserve" xmlns="http://www.w3.org/2000/svg" xmlns:xlink="http://www.w3.org/1999/xlink"><g transform="matrix(.0019969 0 0 .0019969 -5.2512 .2465)" fill="#000">
	<path class="st0" d="m464 32h-416c-26.508 0-48 21.493-48 48v352c0 26.508 21.492 48 48 48h416c26.508 0 48-21.492 48-48v-352c0-26.507-21.492-48-48-48zm-33.484 35c10.492 0 19 8.508 19 19 0 10.493-8.508 19-19 19s-19-8.507-19-19c0-10.492 8.508-19 19-19zm-62.011 0c10.492 0 19 8.508 19 19 0 10.493-8.508 19-19 19s-19-8.507-19-19c0-10.492 8.508-19 19-19zm-64.841 0c10.492 0 19 8.508 19 19 0 10.493-8.508 19-19 19s-19-8.507-19-19c0-10.492 8.508-19 19-19zm176.82 365c0 4.406-12.075 14.603-16.489 14.603h-416c-4.414 0-16.489-10.197-16.489-14.603v-301.66h448.98z" fill="#000"/>
	
	
	
</g><g transform="translate(-.26746 -.22791)"><g id="icon" transform="matrix(.040042 0 0 .040042 -5.1727 .6691)" fill="#000">
    <path d="m22 11v-8h-7v3h-6v-3h-7v8h7v-3h2v10h4v3h7v-8h-7v3h-2v-8h2v3zm-15-2h-3v-4h3zm10 6h3v4h-3zm0-10h3v4h-3z" fill="#000"/>
  </g><g fill="#fff" stroke="#000"><path d="m-5.0122 0.95024v-0.079108h0.11866v0.15822h-0.11866z" stroke-width=".0033244"/><path d="m-4.4904 0.95024v-0.079108h0.11678v0.15822h-0.11678z" stroke-width=".0033244"/><path d="m-4.4904 1.3486v-0.08h0.11668v0.16h-0.11668z" stroke-width=".0034242"/></g></g></svg>
