<?xml version="1.0" encoding="UTF-8" standalone="no"?>
<svg
   width="24"
   height="24"
   viewBox="0 0 1.44 1.44"
   fill="none"
   xmlns="http://www.w3.org/2000/svg"
   xmlns:svg="http://www.w3.org/2000/svg">
  <path
     fill="#26a269"
     d="M 1.0511296,1.1698557 A 0.162,0.162 0 0 0 1.1698557,1.0511296 L 1.275141,0.62184227 A 0.162,0.162 0 0 0 1.2323766,0.46869849 L 0.9713015,0.20762335 A 0.162,0.162 0 0 0 0.81815774,0.16485896 L 0.38887038,0.27014433 A 0.162,0.162 0 0 0 0.27014433,0.38887039 L 0.16485896,0.81815774 a 0.162,0.162 0 0 0 0.0427644,0.15314376 l 0.26107514,0.2610751 a 0.162,0.162 0 0 0 0.15314378,0.042764 z"/>
  <path fill="#ffffff"
     d="M 0.68953113,0.50031181 H 0.7764064 V 0.96000075 H 0.68953113 Z" />
</svg>
