<?xml version="1.0" encoding="UTF-8" standalone="no"?>
<svg
   width="24"
   height="24"
   viewBox="0 0 1.44 1.44"
   fill="none"
   xmlns="http://www.w3.org/2000/svg"
   xmlns:svg="http://www.w3.org/2000/svg">
  <path
     fill="#e5a50a"
     d="M 1.0511296,1.1698559 A 0.162,0.162 0 0 0 1.1698557,1.0511298 L 1.2751411,0.62184245 A 0.162,0.162 0 0 0 1.2323766,0.46869867 L 0.9713015,0.20762353 A 0.162,0.162 0 0 0 0.8181578,0.16485913 L 0.3888704,0.2701445 A 0.162,0.162 0 0 0 0.2701444,0.38887056 L 0.164859,0.81815791 A 0.162,0.162 0 0 0 0.207623,0.97130167 L 0.4686981,1.2323768 a 0.162,0.162 0 0 0 0.1531438,0.042764 z" />
    <path fill="#ffffff"
       d="m 0.5915621,0.478593 q 0.0503127,0 0.0865628,0.0246876 0.0365626,0.0246876 0.0562502,0.0756252 0.0200001,0.0506252 0.0200001,0.14125045 0,0.0915628 -0.0203126,0.14250045 -0.0200001,0.0509377 -0.0540627,0.0750002 -0.0340626,0.0237501 -0.0859378,0.0237501 -0.0518752,0 -0.0871878,-0.0240626 -0.0353126,-0.0240626 -0.0553127,-0.0731252 -0.0200001,-0.0490626 -0.0200001,-0.13968794 0,-0.1265629 0.0390626,-0.18343808 Q 0.51406185,0.478593 0.5915621,0.478593 Z m 0.002188,0.0831253 q -0.0221876,0 -0.0393751,0.014375 -0.0171876,0.0140626 -0.0262501,0.0487502 -0.009063,0.0346876 -0.009063,0.10156282 0,0.0871878 0.0206251,0.12062538 0.0209376,0.0331251 0.0540627,0.0331251 0.0318751,0 0.0506252,-0.0315626 0.0228126,-0.0381251 0.0228126,-0.1275004 0,-0.0906253 -0.0206251,-0.12500039 -0.0203126,-0.0343751 -0.0528127,-0.0343751 z" />
    <path fill="#ffffff"
       d="M 0.87750051,0.49015553 H 1.0084384 V 0.94984448 H 0.92156315 V 0.57234329 h -0.0946878 z" />
</svg>
