<?xml version="1.0" encoding="UTF-8" standalone="no"?>
<svg
   width="24"
   height="24"
   viewBox="0 0 1.44 1.44"
   xmlns="http://www.w3.org/2000/svg"
   xmlns:svg="http://www.w3.org/2000/svg">
  <path
     fill="#c061cb"
     d="M 1.0511296,1.1698559 A 0.162,0.162 0 0 0 1.1698557,1.0511298 L 1.2751411,0.62184245 A 0.162,0.162 0 0 0 1.2323766,0.46869867 L 0.9713015,0.20762353 A 0.162,0.162 0 0 0 0.8181578,0.16485913 L 0.3888704,0.2701445 A 0.162,0.162 0 0 0 0.2701444,0.38887056 L 0.164859,0.81815791 A 0.162,0.162 0 0 0 0.207623,0.97130167 L 0.4686981,1.2323768 a 0.162,0.162 0 0 0 0.1531438,0.042764 z" />
  <path
     fill="#ffffff"
     d="m 0.58343721,0.60359339 h -0.0840628 q 0.006563,-0.0509377 0.0365626,-0.0818753 0.0418751,-0.0431251 0.10531283,-0.0431251 0.0565627,0 0.0946878,0.0359376 0.0384376,0.0359376 0.0384376,0.0853128 0,0.0306251 -0.0168751,0.0559377 -0.0165625,0.0253126 -0.0484377,0.0409376 0.0418751,0.0125 0.0653127,0.0437501 0.0237501,0.0309376 0.0237501,0.0731252 0,0.0618752 -0.0456252,0.10500033 -0.0456251,0.0428126 -0.11625036,0.0428126 -0.0668752,0 -0.10906284,-0.0403126 -0.0421876,-0.0406251 -0.0462502,-0.11031285 h 0.0865628 q 0.005625,0.0356251 0.0246876,0.0531252 0.0193751,0.0171876 0.0487502,0.0171876 0.0306251,0 0.0506252,-0.0196876 0.0203126,-0.0196876 0.0203126,-0.0481251 0,-0.0312501 -0.0271876,-0.0528127 -0.0271876,-0.0215626 -0.0784378,-0.0221876 v -0.0750002 q 0.0315626,-0.0025 0.0468752,-0.009688 0.015625,-0.0075 0.0240626,-0.0203126 0.00875,-0.0128125 0.00875,-0.0271876 0,-0.0187501 -0.013125,-0.0309376 -0.013125,-0.0125 -0.0343751,-0.0125 -0.01875,0 -0.0340626,0.0115625 -0.0153125,0.01125 -0.0209375,0.0293756 z" />
  <path
     fill="#ffffff"
     d="m 0.91000075,0.8607817 q 0.0203126,0 0.0346876,0.014375 0.014375,0.0140626 0.014375,0.0343751 0,0.0203126 -0.014375,0.0346876 -0.014375,0.014375 -0.0346876,0.014375 -0.0203126,0 -0.0346876,-0.014375 -0.014375,-0.014375 -0.014375,-0.0346876 0,-0.0203126 0.014375,-0.0343751 0.0143751,-0.014375 0.0346876,-0.014375 z" />
</svg>
