<?xml version="1.0" encoding="UTF-8" standalone="no"?>
<svg
   width="64"
   height="64"
   version="1.1"
   viewBox="0 0 64 64"
   id="svg1"
   sodipodi:docname="actionSwappedUInt32.svg"
   inkscape:version="1.4.2 (f4327f4, 2025-05-13)"
   xmlns:inkscape="http://www.inkscape.org/namespaces/inkscape"
   xmlns:sodipodi="http://sodipodi.sourceforge.net/DTD/sodipodi-0.dtd"
   xmlns="http://www.w3.org/2000/svg"
   xmlns:svg="http://www.w3.org/2000/svg">
  <defs
     id="defs1" />
  <sodipodi:namedview
     id="namedview1"
     pagecolor="#ffffff"
     bordercolor="#000000"
     borderopacity="0.25"
     inkscape:showpageshadow="2"
     inkscape:pageopacity="0.0"
     inkscape:pagecheckerboard="0"
     inkscape:deskcolor="#d1d1d1"
     showgrid="true"
     inkscape:zoom="12.609375"
     inkscape:cx="32"
     inkscape:cy="32"
     inkscape:window-width="1920"
     inkscape:window-height="1009"
     inkscape:window-x="-8"
     inkscape:window-y="357"
     inkscape:window-maximized="1"
     inkscape:current-layer="svg1">
    <inkscape:grid
       id="grid1"
       units="px"
       originx="0"
       originy="0"
       spacingx="1"
       spacingy="1"
       empcolor="#0099e5"
       empopacity="0.30196078"
       color="#0099e5"
       opacity="0.14901961"
       empspacing="5"
       enabled="true"
       visible="true" />
  </sodipodi:namedview>
  <path
     id="path1"
     d="M 39.344064 21.435443 L 39.344064 26.324323 C 39.344064 26.358537 39.325474 26.388556 39.295339 26.407154 L 39.295339 27.889124 L 26.387554 27.889124 L 26.387554 31.115965 L 39.295339 31.115965 L 39.295339 34.342806 L 26.387554 34.342806 L 26.387554 37.569647 L 45.748172 37.569647 L 45.748172 21.435443 L 39.344064 21.435443 z M 48.974589 21.435443 L 48.974589 24.662283 L 61.882374 24.662283 L 61.882374 27.889124 L 48.974589 27.889124 L 48.974589 37.569647 L 68.337326 37.569647 L 68.337326 34.342806 L 55.429541 34.342806 L 55.429541 31.115965 L 68.337326 31.115965 L 68.337326 21.435443 L 48.974589 21.435443 z M 3.8005196 26.416158 L 3.8005196 37.569647 L 23.161138 37.569647 L 23.161138 26.426962 L 16.706186 26.426962 L 16.706186 34.342806 L 10.253353 34.342806 L 10.253353 26.426962 L 3.8534812 26.426962 C 3.8342902 26.426962 3.8165949 26.422882 3.8005196 26.416158 z "
     transform="scale(.92195452 1.0846522)" />
  <path
     id="path2-1"
     style="fill:#ff0000;stroke-width:0"
     inkscape:transform-center-x="2.6497444"
     inkscape:transform-center-y="0.00071235"
     d="m 14.776246,17.310637 -0.003,5.578556 -0.003,5.578559 -5.6243153,-2.791568 -5.624245,-2.791564 5.627319,-2.786992 z m 20.011715,7.035399 H 11.010933 c -0.188991,0 -0.34118,-0.135363 -0.34118,-0.3035 v -2.306668 c 0,-0.168137 0.152146,-0.303501 0.34118,-0.303501 h 23.777028 c 0.188992,0 0.341179,0.135364 0.341179,0.303501 v 2.30666 c 0,0.168137 -0.152146,0.303501 -0.341179,0.303501 z m -10.913379,-4.302922 0.003,-5.578555 0.003,-5.5785612 5.624241,2.7915692 5.624246,2.791565 -5.627318,2.786991 z M 3.8628647,13.007714 H 27.639893 c 0.188992,0 0.34118,0.135364 0.34118,0.303501 v 2.306668 c 0,0.168137 -0.152145,0.303501 -0.34118,0.303501 H 3.8628647 c -0.188992,0 -0.341179,-0.135364 -0.341179,-0.303501 v -2.306661 c 0,-0.168137 0.152146,-0.303501 0.341179,-0.303501 z" />
</svg>
