<svg class="cf-icon-svg" width="64" height="64" version="1.1" viewBox="-5.5 0 1.52 1.52" xml:space="preserve" xmlns="http://www.w3.org/2000/svg" xmlns:xlink="http://www.w3.org/1999/xlink"><rect x="-5.3719" y=".76471" width=".062156" height=".50478" rx="0" ry=".031064" fill="#000080"/><g transform="matrix(.0019969 0 0 .0019969 -5.2512 .2465)">
	<path class="st0" d="m464 32h-416c-26.508 0-48 21.493-48 48v352c0 26.508 21.492 48 48 48h416c26.508 0 48-21.492 48-48v-352c0-26.507-21.492-48-48-48zm-33.484 35c10.492 0 19 8.508 19 19 0 10.493-8.508 19-19 19s-19-8.507-19-19c0-10.492 8.508-19 19-19zm-62.011 0c10.492 0 19 8.508 19 19 0 10.493-8.508 19-19 19s-19-8.507-19-19c0-10.492 8.508-19 19-19zm-64.841 0c10.492 0 19 8.508 19 19 0 10.493-8.508 19-19 19s-19-8.507-19-19c0-10.492 8.508-19 19-19zm176.82 365c0 4.406-12.075 14.603-16.489 14.603h-416c-4.414 0-16.489-10.197-16.489-14.603v-301.66h448.98z"/>
	
	
	
</g><g fill="#fff" stroke="#000" stroke-width=".055754"><rect x="-5.3465" y=".40712" width=".32008" height=".26877"/><rect x="-5.1609" y=".59506" width=".32008" height=".26877"/><rect x="-4.957" y=".78718" width=".32008" height=".26877"/><rect x="-4.7687" y=".97554" width=".32008" height=".26877"/></g></svg>
