<?xml version="1.0" encoding="UTF-8" standalone="no"?>
<svg
   width="24"
   height="24"
   viewBox="0 0 1.44 1.44"
   fill="none"
   xmlns="http://www.w3.org/2000/svg"
   xmlns:svg="http://www.w3.org/2000/svg">
  <path
     fill="#865e3c"
     d="M 1.0511296,1.1698557 A 0.162,0.162 0 0 0 1.1698557,1.0511296 L 1.275141,0.62184227 A 0.162,0.162 0 0 0 1.2323766,0.46869849 L 0.9713015,0.20762335 A 0.162,0.162 0 0 0 0.81815774,0.16485896 L 0.38887038,0.27014433 A 0.162,0.162 0 0 0 0.27014433,0.38887039 L 0.16485896,0.81815774 a 0.162,0.162 0 0 0 0.0427644,0.15314376 l 0.26107514,0.2610751 a 0.162,0.162 0 0 0 0.15314378,0.042764 z" />
  <path fill="#ffffff"
     d="m 0.55453127,0.49015627 h 0.08875 v 0.1734375 h 0.15375 v -0.1734375 h 0.0884375 V 0.94984376 H 0.79703127 V 0.74828127 h -0.15375 v 0.20156249 h -0.08875 z" />
</svg>
