<svg width="64" height="64" version="1.1" viewBox="0 0 64 64" xmlns="http://www.w3.org/2000/svg">
 <path d="m37.890625 23.25v3.5h14v3.5h-14v10.5h21v-3.5h-14v-3.5h14v-10.5h-21zm-10.5 5.023438v1.976562h-14v3.5h14v3.5h-14v3.5h21v-12.476562c-9.13e-4 2.1e-5 -0.002988 0-0.003906 0h-6.996094zm-24.5 1.976562v10.5h7v-10.5h-7z"/>
 <path d="m14.275333 17.276376-3e-3 5.578626-3e-3 5.57863-5.6241731-2.791603-5.6241648-2.7916 5.627238-2.787027zm20.011428 7.035488h-23.776687c-0.188988 0-0.341176-0.135365-0.341176-0.303504v-2.306697c0-0.168139 0.152144-0.303505 0.341176-0.303505h23.776687c0.188989 0 0.341174 0.135366 0.341174 0.303505v2.306689c0 0.168139-0.152144 0.303505-0.341174 0.303505zm-10.913222-4.302977 3e-3 -5.578625 3e-3 -5.5786315 5.624161 2.7916045 5.624165 2.7916-5.627238 2.787026zm-20.01143-7.035488h23.776687c0.188989 0 0.341174 0.135366 0.341174 0.303505v2.306696c0 0.168139-0.152142 0.303505-0.341174 0.303505h-23.776687c-0.1889889 0-0.3411743-0.135366-0.3411743-0.303505v-2.306689c0-0.168139 0.1521438-0.303505 0.3411743-0.303505z" fill="#f00" stroke-width="0"/>
</svg>
