<svg width="64" height="64" version="1.1" viewBox="0 0 64 64" xmlns="http://www.w3.org/2000/svg">
 <path d="m38.287109 23.25v3.5h14v3.5h-14v10.5h21v-3.5h-14v-3.5h14v-10.5h-21zm-3.5 5.228516c-0.015866 0.008698-0.035246 0.013672-0.054687 0.013672h-6.945313v1.757812h-14v3.5h14v3.5h-14v3.5h21v-12.271484zm-31.5 5.271484v7h6.9999996v-7h-6.9999996z"/>
 <path d="m14.562949 17.310745-3e-3 5.578626-3e-3 5.57863-5.6241735-2.791602-5.6241654-2.7916 5.6272384-2.787027zm20.011428 7.035488h-23.776687c-0.188988 0-0.341176-0.135365-0.341176-0.303504v-2.306697c0-0.168139 0.152144-0.303505 0.341176-0.303505h23.776687c0.188989 0 0.341174 0.135366 0.341174 0.303505v2.306689c0 0.168139-0.152144 0.303505-0.341174 0.303505zm-10.913222-4.302976 3e-3 -5.578625 3e-3 -5.578632 5.624161 2.791605 5.624165 2.7916-5.627238 2.787026zm-20.011431-7.035488h23.776688c0.188989 0 0.341174 0.135365 0.341174 0.303504v2.306697c0 0.168139-0.152142 0.303504-0.341174 0.303504h-23.776688c-0.188988 0-0.341174-0.135365-0.341174-0.303504v-2.306689c0-0.16814 0.152144-0.303505 0.341174-0.303505z" fill="#f00" stroke-width="0"/>
</svg>
