<?xml version="1.0" encoding="UTF-8" standalone="no"?>
<svg
   width="24"
   height="24"
   viewBox="0 0 1.44 1.44"
   xmlns="http://www.w3.org/2000/svg"
   xmlns:svg="http://www.w3.org/2000/svg">
  <path
     fill="#a51d2d"
     d="M 1.0511296,1.1698559 A 0.162,0.162 0 0 0 1.1698557,1.0511298 L 1.2751411,0.62184245 A 0.162,0.162 0 0 0 1.2323766,0.46869867 L 0.9713015,0.20762353 A 0.162,0.162 0 0 0 0.8181578,0.16485913 L 0.3888704,0.2701445 A 0.162,0.162 0 0 0 0.2701444,0.38887056 L 0.164859,0.81815791 A 0.162,0.162 0 0 0 0.207623,0.97130167 L 0.4686981,1.2323768 a 0.162,0.162 0 0 0 0.1531438,0.042764 z" />
    <path fill="#ffffff"
       d="M 0.38140518,0.49015553 H 0.4851555 q 0.10031282,0 0.14906297,0.0250001 0.0487502,0.0246876 0.0803128,0.0806253 0.0315626,0.0559377 0.0315626,0.13062541 0,0.0531252 -0.0178126,0.0978128 -0.0175001,0.0443751 -0.0487502,0.0737502 -0.0309376,0.0293751 -0.0671877,0.0406251 -0.0362501,0.01125 -0.12562539,0.01125 H 0.38140518 Z m 0.0871878,0.0843753 v 0.28968841 h 0.0406251 q 0.0600002,0 0.0868753,-0.01375 0.0271876,-0.01375 0.0443751,-0.0462501 0.0171876,-0.0325001 0.0171876,-0.0800003 0,-0.0731252 -0.0409376,-0.11343786 Q 0.5798433,0.5745308 0.49828054,0.5745308 Z" />
    <path fill="#ffffff"
       d="M 0.83046908,0.49015553 H 1.0585948 V 0.5754683 H 0.91703186 v 0.0834378 H 1.0585948 v 0.0840628 H 0.91703186 v 0.20687565 h -0.0865628 z" />
</svg>
