<?xml version="1.0" encoding="UTF-8" standalone="no"?>
<svg
   width="24"
   height="24"
   viewBox="0 0 1.44 1.44"
   xmlns="http://www.w3.org/2000/svg"
   xmlns:svg="http://www.w3.org/2000/svg">
  <path
     fill="#c061cb"
     d="M 1.0511296,1.1698559 A 0.162,0.162 0 0 0 1.1698557,1.0511298 L 1.2751411,0.62184245 A 0.162,0.162 0 0 0 1.2323766,0.46869867 L 0.9713015,0.20762353 A 0.162,0.162 0 0 0 0.8181578,0.16485913 L 0.3888704,0.2701445 A 0.162,0.162 0 0 0 0.2701444,0.38887056 L 0.164859,0.81815791 A 0.162,0.162 0 0 0 0.207623,0.97130167 L 0.4686981,1.2323768 a 0.162,0.162 0 0 0 0.1531438,0.042764 z" />
  <path fill="#ffffff"
       d="m 0.69968744,0.55265573 -0.0646877,0.0571877 q -0.0340626,-0.0475001 -0.0693752,-0.0475001 -0.0171876,0 -0.0281251,0.009375 -0.0109375,0.009063 -0.0109375,0.0206251 0,0.0115625 0.007813,0.0218751 0.010625,0.01375 0.0640627,0.0590627 0.0500002,0.0418751 0.0606252,0.0528127 0.0265626,0.0268751 0.0375001,0.0515627 0.01125,0.0243751 0.01125,0.0534377 0,0.0565627 -0.0390626,0.0934378 -0.0390626,0.0368751 -0.10187532,0.0368751 -0.0490627,0 -0.0856253,-0.0240626 -0.0362501,-0.0240626 -0.0621877,-0.0756252 l 0.0734377,-0.0443751 q 0.0331251,0.0609377 0.0762502,0.0609377 0.0225001,0 0.0378126,-0.013125 0.0153125,-0.013125 0.0153125,-0.0303126 0,-0.015625 -0.0115625,-0.0312501 -0.0115625,-0.0156251 -0.0509377,-0.0478127 -0.0750002,-0.0612502 -0.0968753,-0.0943753 -0.0218751,-0.0334376 -0.0218751,-0.0665627 0,-0.0478127 0.0362501,-0.0818753 0.0365626,-0.0343751 0.0900003,-0.0343751 0.0343751,0 0.0653127,0.0159376 0.0312501,0.0159375 0.0675002,0.0581252 z" />
  <path fill="#ffffff"
       d="M 0.79281275,0.49015553 H 1.0209385 V 0.5754683 H 0.87937552 v 0.0834378 H 1.0209385 v 0.0840628 H 0.87937552 v 0.20687565 h -0.0865628 z" />
</svg>
