<?xml version="1.0" encoding="UTF-8"?>
<!DOCTYPE svg PUBLIC "-//W3C//DTD SVG 1.1//EN" "http://www.w3.org/Graphics/SVG/1.1/DTD/svg11.dtd">
<svg version="1.1" id="Layer_1" xmlns="http://www.w3.org/2000/svg" xmlns:xlink="http://www.w3.org/1999/xlink" x="0px" y="0px" width="24px" height="24px" viewBox="0 0 24 24" enable-background="new 0 0 24 24" xml:space="preserve">
  <g id="icon">
    <path d="M20,10h-3V8.86c1.72,-0.45,3,-2,3,-3.86h-3V4c0,-0.55,-0.45,-1,-1,-1H8c-0.55,0,-1,0.45,-1,1v1H4c0,1.86,1.28,3.41,3,3.86V10H4c0,1.86,1.28,3.41,3,3.86V15H4c0,1.86,1.28,3.41,3,3.86V20c0,0.55,0.45,1,1,1h8c0.55,0,1,-0.45,1,-1v-1.14c1.72,-0.45,3,-2,3,-3.86h-3v-1.14c1.72,-0.45,3,-2,3,-3.86zm-8,9c-1.11,0,-2,-0.9,-2,-2s0.89,-2,2,-2c1.1,0,2,0.9,2,2s-0.89,2,-2,2zm0,-5c-1.11,0,-2,-0.9,-2,-2s0.89,-2,2,-2c1.1,0,2,0.9,2,2s-0.89,2,-2,2zm0,-5c-1.11,0,-2,-0.9,-2,-2,0,-1.11,0.89,-2,2,-2,1.1,0,2,0.89,2,2,0,1.1,-0.89,2,-2,2z" fill="#212121"/>
  </g>
</svg>
