<svg width="24" height="24" version="1.1" viewBox="0 -.5 1.44 1.44" xmlns="http://www.w3.org/2000/svg">
 <g id="icon" transform="matrix(.06 0 0 .06 0 -.497)">
  <path d="m12 1.95c-5.52 0-10 4.48-10 10s4.48 10 10 10h5v-2h-5c-4.34 0-8-3.66-8-8s3.66-8 8-8 8 3.66 8 8v1.43c0 0.79-0.71 1.57-1.5 1.57s-1.5-0.78-1.5-1.57v-1.43c0-2.76-2.24-5-5-5s-5 2.24-5 5 2.24 5 5 5c1.38 0 2.64-0.56 3.54-1.47 0.65 0.89 1.77 1.47 2.96 1.47 1.97 0 3.5-1.6 3.5-3.57v-1.43c0-5.52-4.48-10-10-10zm0 13c-1.66 0-3-1.34-3-3s1.34-3 3-3 3 1.34 3 3-1.34 3-3 3z" fill="#212121"/>
 </g>
</svg>
