<svg width="24" height="24" version="1.1" viewBox="0 -.5 1.44 1.44" xmlns="http://www.w3.org/2000/svg">
 <g transform="matrix(.0275 0 0 .0275 .059945 -.42624)" fill-rule="evenodd">
  <g transform="translate(-700,-560)">
   <path id="Github" d="m724 560c-9.3534-0.12718-18.363 5.8471-21.996 14.447-3.9532 8.8236-1.9097 19.918 5.0274 26.684 2.7304 2.675 6.0778 4.9198 9.7999 5.8676 2.0663-0.38144 1.1921-4.334 0.88097-5.2349-2.9188 0.73259-6.6802-0.18689-7.7759-3.2941-0.21882-2.1888-3.1789-3.1718-3.3988-4.8173 2.4921-0.78376 4.2452 1.7009 5.4338 3.4799 1.4082 1.7086 5.1458 2.1751 6.2263 0.27215-0.055-1.4911 2.651-3.111-0.0771-2.8747-3.8967-0.47813-7.7476-2.9623-8.7865-6.9064-1.0858-3.7446-1.0365-8.2829 1.8263-11.254-0.67259-1.9752-0.84595-5.0459 0.62062-6.4287 2.6174-0.28744 4.6544 2.2989 6.9378 2.3343 3.701-0.88339 7.6247-0.82382 11.294 0.18794 1.9011-1.1112 4.6566-3.1868 6.7091-2.1614 1.2448 2.1312-0.14019 4.8855 0.66979 6.7215 2.6226 3.4104 2.3151 8.2527 0.71871 12.038-1.6662 3.7578-5.9132 5.3518-9.7571 5.664 2.3474 2.2631 1.445 5.7808 1.614 8.6784-0.34888 1.7281 0.0973 4.7329 2.5205 3.2352 9.3822-3.4262 15.919-13.182 15.507-23.165-0.11028-9.5461-6.5128-18.606-15.467-21.91-2.715-1.0383-5.6214-1.5672-8.5276-1.565"/>
  </g>
 </g>
</svg>
