<svg class="cf-icon-svg" width="64" height="64" fill="#000000" version="1.1" viewBox="-5.5 0 1.52 1.52" xml:space="preserve" xmlns="http://www.w3.org/2000/svg" xmlns:xlink="http://www.w3.org/1999/xlink"><g transform="translate(0 -.024486)" stroke="#000"><g transform="matrix(.021173 0 0 .021173 -5.347 .30672)" fill="#a0892c" stroke-width="2.6135"><path d="m40.119 41.24 11.439-19.44h-35.188l-12.252 19.44z" fill="#a0892c" stroke="#000" stroke-linecap="round" stroke-linejoin="round" stroke-width="2.6135"/></g><path d="m-4.6779 0.39586c0.10778-0.13953 0.34488-0.052459 0.34387 0.12268h-0.030237c-0.0012799-0.16954-0.20361-0.23137-0.31363-0.098762z" stroke-width=".0292"/><path transform="matrix(.7816 .82642 -1.1109 .47652 -.56919 4.3838)" d="m-4.6552 0.12149-0.090644-4.057e-4 0.045672-0.078296 0.022485 0.039351z" fill="#000" stroke-width=".06156"/><path d="m-5.2607 0.49873v0.67752l0.25993-0.4116 0.49339-0.001693-0.00169-0.13719c-2.886e-4 -0.023385-0.018958-0.042345-0.042345-0.042345h-0.28583l-0.10586-0.12704h-0.27524c-0.023386 0-0.042345 0.018959-0.042345 0.042345z" fill="#efa" stroke-linecap="round" stroke-linejoin="round" stroke-width=".055334"/></g></svg>
