<svg class="cf-icon-svg" width="64" height="64" fill="#000000" version="1.1" viewBox="-5.5 0 1.52 1.52" xml:space="preserve" xmlns="http://www.w3.org/2000/svg" xmlns:xlink="http://www.w3.org/1999/xlink"><g transform="matrix(.94958149 0 0 .94958149 -.28335174 .04584684)" stroke="#000"><path d="m-4.2946906 0.34786079v0.82427771c-4.05e-5 0.019407-0.015763 0.035129-0.035169 0.035169h-0.6904147c-0.022263-0.00123-0.043464-0.00992-0.060194-0.024655l-0.07967-0.077963c-0.015058-0.016429-0.023954-0.037571-0.025171-0.059823v-0.69700524c4.07e-5 -0.0194357 0.015808-0.0351696 0.035244-0.0351688h0.8202801c0.019377 8.134e-5 0.035054 0.015791 0.035095 0.0351683zm-0.2004984 0.55370509c-4.05e-5 -0.0194185-0.015751-0.0351616-0.035169-0.0352427h-0.4198758c-0.019418 8.115e-5 -0.035128 0.0158242-0.035169 0.0352427v0.25484292c4.05e-5 0.019406 0.015763 0.035128 0.035169 0.035169h0.4198017c0.019406-4.05e-5 0.035128-0.015763 0.035169-0.035169zm-0.051111-4.848e-4h-0.089588v0.16288632h0.089588z" fill="#808000" stroke-width=".0475"/><path transform="matrix(.02375 0 0 .02375 -5.5 0)" d="m22.811801 49.762323c-0.124637-0.03735-0.297808-0.13234-0.384823-0.211088-0.389449-0.352446-0.37989-0.194203-0.37989-6.288905v-5.717047l0.311522-0.33398 0.311523-0.33398 9.225032-0.02009c9.094905-0.01981 9.228679-0.01786 9.483503 0.13806 0.142158 0.08698 0.329385 0.274462 0.41606 0.416621 0.153337 0.251492 0.157599 0.410496 0.157887 5.890438 3.37e-4 6.387201 0.03737 6.017277-0.636997 6.363075l-0.347987 0.178438-8.964609-0.0068c-4.930534-0.0037-9.066584-0.03738-9.191221-0.07473z" fill="#000" stroke-width="2" style="paint-order:normal"/></g><g fill="#fff"><path d="m-4.5285175 0.41846532c-3.61e-5 -0.0211062-0.013989-0.038205-0.031213-0.0382489h-0.437676c-0.01722 4.405e-5 -0.031175 0.0171428-0.031211 0.0382489v0.25864185c3.62e-5 0.0211059 0.013989 0.0382048 0.031211 0.038249h0.4376103c0.017248 2.5e-7 0.031241-0.0171117 0.031275-0.038249z" stroke="#000" stroke-width=".0349995"/><path d="m-4.6125227 1.0470736v-0.0962571h-0.132084v0.1925141h0.132084z" style="paint-order:normal"/><rect x="-4.4810162" y=".44639397" width=".054628886" height=".056176107" style="paint-order:normal"/></g></svg>
