<svg xmlns="http://www.w3.org/2000/svg" width="16" height="15" viewBox="0 0 16 15">
  <!-- Folder back fill -->
  <path d="M1.5,4.5 L2.5,3.5 H4.5 L5.5,4.5 H11.5 V7.5 H6.5 L1.5,12.5 Z" fill="#ffff80" stroke="none"/>
  <!-- Front flap fill -->
  <path d="M6.5,7.5 H15.5 V8.5 L11.5,12.5 H1.5 Z" fill="#808000" stroke="none"/>
  <!-- All borders as single stroke -->
  <path d="M1.5,4.5 L2.5,3.5 H4.5 L5.5,4.5 H11.5 V7.5 H6.5 L1.5,12.5 Z
           M6.5,7.5 H15.5 V8.5 L11.5,12.5 H1.5 Z"
        fill="none" stroke="#000" stroke-width="1" stroke-linejoin="miter" stroke-miterlimit="2"/>
  <!-- Arrow -->
  <path d="M10,0h3v1h-3z M9,1h1v1h-1z M13,1h1v1h-1z M15,1h1v1h-1z M14,2h2v1h-2z M13,3h3v1h-3z" fill="#000"/>
</svg>
