<svg class="cf-icon-svg" width="64" height="64" fill="#000000" version="1.1" viewBox="-5.5 0 1.52 1.52" xml:space="preserve" xmlns="http://www.w3.org/2000/svg"><g transform="matrix(.0019969 0 0 .0019969 -5.2512 .2465)" fill="#000">
	<path class="st0" d="m464 32h-416c-26.508 0-48 21.493-48 48v352c0 26.508 21.492 48 48 48h416c26.508 0 48-21.492 48-48v-352c0-26.507-21.492-48-48-48zm-33.484 35c10.492 0 19 8.508 19 19 0 10.493-8.508 19-19 19s-19-8.507-19-19c0-10.492 8.508-19 19-19zm-62.011 0c10.492 0 19 8.508 19 19 0 10.493-8.508 19-19 19s-19-8.507-19-19c0-10.492 8.508-19 19-19zm-64.841 0c10.492 0 19 8.508 19 19 0 10.493-8.508 19-19 19s-19-8.507-19-19c0-10.492 8.508-19 19-19zm176.82 365c0 4.406-12.075 14.603-16.489 14.603h-416c-4.414 0-16.489-10.197-16.489-14.603v-301.66h448.98z" fill="#000"/>
	
	
	
</g><g fill="#808080"><rect class="st0" x="-5.0289" y=".63101" width=".57511" height=".063901"/><rect class="st0" x="-5.0289" y=".75965" width=".51107" height=".063901" stroke-width=".94268"/><rect class="st0" x="-5.0289" y=".89058" width=".43538" height=".063901" stroke-width="1.1976"/></g><polygon transform="matrix(.0014195 0 0 .0014195 -5.3711 .6921)" points="309.36 342.86 342.79 309.42 377.28 343.9 343.84 377.34" fill="#000"/><g stroke-width=".0014195"><path d="m-4.6799 1.3835c-0.028181 0.028181-0.074161 0.028181-0.10234 0l-0.13942-0.13942 0.10234-0.10234 0.13942 0.13942c0.028181 0.028181 0.028181 0.074161 0 0.10234z" fill="#333"/><path d="m-4.892 0.77387c-0.10976-0.10828-0.28626-0.10976-0.39602 0s-0.11124 0.28478-0.00148 0.39454c0.10828 0.10976 0.28626 0.10976 0.39602 0.00148 0.10976-0.10827 0.10976-0.28626 0.00148-0.39602z" fill="#000"/><path d="m-4.9365 1.1269c-0.086026 0.084543-0.22545 0.084543-0.30999-0.00148-0.086026-0.084543-0.084543-0.22397 0.00148-0.30851 0.086026-0.084543 0.22545-0.084543 0.30999 0.001483 0.084543 0.084544 0.084543 0.22397-0.00148 0.30851z" fill="#f2f2f2"/><path d="m-4.9795 1.0839c-0.062295 0.060812-0.16315 0.060812-0.22397 0-0.062295-0.062295-0.060812-0.16167 0-0.22397 0.062295-0.060812 0.16315-0.060812 0.22397 0 0.062295 0.062295 0.062295 0.16167 0 0.22397z" fill="#84fdff"/><path d="m-5.0136 1.0497c-0.043013 0.043013-0.11272 0.043013-0.15574 0-0.043013-0.043013-0.043013-0.11272 0-0.15574 0.043013-0.043013 0.11272-0.043013 0.15574 0 0.043013 0.043012 0.043013 0.11272 0 0.15574z" fill="#0ff"/></g><g transform="matrix(.0014195 0 0 .0014195 -5.3711 .6921)" fill="#fff">
	<circle cx="135.14" cy="159.89" r="16.718"/>
	<circle cx="159.99" cy="175.96" r="8.359"/>
</g><polygon transform="matrix(.0014195 0 0 .0014195 -5.3711 .6921)" points="345.93 418.09 418.03 345.99 388.77 316.74 315.63 387.79" fill="#000"/></svg>
