<svg class="cf-icon-svg" width="64" height="64" fill="#000000" version="1.1" viewBox="-5.5 0 1.52 1.52" xml:space="preserve" xmlns="http://www.w3.org/2000/svg" xmlns:xlink="http://www.w3.org/1999/xlink"><g transform="matrix(.0019969 0 0 .0019969 -5.2512 .2465)" fill="#000">
	<path class="st0" d="m464 32h-416c-26.508 0-48 21.493-48 48v352c0 26.508 21.492 48 48 48h416c26.508 0 48-21.492 48-48v-352c0-26.507-21.492-48-48-48zm-33.484 35c10.492 0 19 8.508 19 19 0 10.493-8.508 19-19 19s-19-8.507-19-19c0-10.492 8.508-19 19-19zm-62.011 0c10.492 0 19 8.508 19 19 0 10.493-8.508 19-19 19s-19-8.507-19-19c0-10.492 8.508-19 19-19zm-64.841 0c10.492 0 19 8.508 19 19 0 10.493-8.508 19-19 19s-19-8.507-19-19c0-10.492 8.508-19 19-19zm176.82 365c0 4.406-12.075 14.603-16.489 14.603h-416c-4.414 0-16.489-10.197-16.489-14.603v-301.66h448.98z" fill="#000"/>
	
	
	
</g><path class="st0" d="m-4.6682 0.88899h0.20594v0.06509h-0.20594zm-0.36019-0.001559h0.20594v0.06509h-0.20594zm0.35969-0.12623h0.20594v0.06509h-0.20594zm0-0.12864h0.20594v0.063901h-0.20594zm-0.36019 0.12708h0.20594v0.06509h-0.20594zm0-0.12864h0.20594v0.063901h-0.20594z" fill="#808080" stroke-width=".018417"/><g transform="matrix(1.0429 0 0 1.2934 .23094 -.36581)" stroke-width=".00085802"><path d="m-4.5939 1.0673h-0.21553c-0.023338 0-0.041184 0.017847-0.041184 0.041185v0.10022c0 0.023338 0.017847 0.041184 0.041184 0.041184h0.21553c0.023338 0 0.041184-0.017847 0.041184-0.041184v-0.10022c0-0.021966-0.017847-0.041185-0.041184-0.041185zm-0.44641 0h-0.21553c-0.023338 0-0.041184 0.017847-0.041184 0.041185v0.10022c0 0.023338 0.017847 0.041184 0.041184 0.041184h0.21553c0.023338 0 0.041184-0.017847 0.041184-0.041184v-0.10022c0-0.021966-0.017847-0.041185-0.041184-0.041185z" fill="#0ff"/><path d="m-4.5253 1.1126v-0.00412c0-0.038439-0.030202-0.068642-0.068641-0.068642h-0.21553c-0.038439 0-0.068641 0.030202-0.068641 0.068642v0.00412h-0.092224v-0.00412c0-0.038439-0.030202-0.068642-0.068641-0.068642h-0.21691c-0.038439 0-0.068641 0.030202-0.068641 0.068642v0.00412h-0.061778v0.027457h0.061778v0.068641c0 0.038439 0.030202 0.068641 0.068641 0.068641h0.21553c0.038439 0 0.068641-0.030202 0.068641-0.068641v-0.068641h0.092224v0.068641c0 0.038439 0.030202 0.068641 0.068641 0.068641h0.21553c0.038439 0 0.068641-0.030202 0.068641-0.068641v-0.068641h0.064523v-0.027457zm-0.47387 0.096098c0 0.023338-0.017847 0.041184-0.041184 0.041184h-0.21553c-0.023338 0-0.041184-0.017847-0.041184-0.041184v-0.10022c0-0.023338 0.017847-0.041185 0.041184-0.041185h0.21553c0.023338 0 0.041184 0.01922 0.041184 0.041185zm0.44641 0c0 0.023338-0.017847 0.041184-0.041184 0.041184h-0.21553c-0.023338 0-0.041184-0.017847-0.041184-0.041184v-0.10022c0-0.023338 0.017847-0.041185 0.041184-0.041185h0.21553c0.023338 0 0.041184 0.01922 0.041184 0.041185z" fill=""/></g></svg>
