<svg width="24" height="24" version="1.1" viewBox="0 -.5 1.44 1.44" xmlns="http://www.w3.org/2000/svg">
 <path d="m1.3078 0.099012c-8e-3 -0.0386-0.01977-0.07626-0.03531-0.11299-0.01506-0.03578-0.0339-0.06967-0.05555-0.10169-0.02166-0.03201-0.04614-0.0612-0.07297-0.08851-0.0273-0.02731-0.05743-0.05226-0.0885-0.07297-0.03201-0.02165-0.06685-0.04049-0.10169-0.05555-0.03625-0.01553-0.07391-0.02731-0.11299-0.03531-0.03955-8e-3 -0.08003-0.01224-0.12099-0.01224-0.04096 0-0.08144 0.0042-0.12099 0.01224-0.0386 8e-3 -0.07627 0.01977-0.11252 0.03531-0.03578 0.01506-0.06967 0.0339-0.10169 0.05555-0.03201 0.02166-0.06167 0.04614-0.08851 0.07297-0.02683 0.02683-0.05178 0.05743-0.07297 0.08851-0.02166 0.03201-0.04049 0.06591-0.05555 0.10169-0.01553 0.03625-0.02731 0.07391-0.03531 0.11299-8e-3 0.03955-0.01224 0.08003-0.01224 0.12099 0 0.04096 0.0042 0.08144 0.01224 0.12099 8e-3 0.0386 0.01977 0.07626 0.03531 0.11252 0.01506 0.03578 0.0339 0.06967 0.05555 0.10216 0.02166 0.03201 0.04614 0.0612 0.07297 0.08851 0.02731 0.0273 0.05743 0.05178 0.08851 0.07297 0.03201 0.02166 0.06685 0.04049 0.10169 0.05555 0.03625 0.01553 0.07391 0.02731 0.11252 0.03531 0.03955 8e-3 0.08003 0.01224 0.12099 0.01224 0.04096 0 0.08097-0.0042 0.12099-0.01224 0.0386-8e-3 0.07626-0.01977 0.11299-0.03531 0.03578-0.01506 0.06967-0.0339 0.10169-0.05555 0.03201-0.02166 0.06167-0.04614 0.0885-0.07297 0.02731-0.02731 0.05179-0.05744 0.07297-0.08851 0.02165-0.03201 0.04049-0.06638 0.05555-0.10216 0.01553-0.03625 0.0273-0.07391 0.03531-0.11252 8e-3 -0.03955 0.01224-0.08003 0.01224-0.12099 0-0.04096-0.0042-0.08144-0.01224-0.12099zm-0.588-0.39168c0.12993 0 0.2481 0.04849 0.33848 0.12805-0.0014 0.0019-0.07391 0.11298-0.26787 0.18548-0.08756-0.161-0.18407-0.28905-0.19208-0.29941 0.03907-0.0089 0.07956-0.01412 0.12146-0.01412zm-0.12381 0.01506c0-4.7e-4 4.71e-4 -4.7e-4 0 0zm-0.0951 0.0339c0.0071 0.0089 0.10169 0.13794 0.19066 0.29564-0.24621 0.06497-0.45994 0.06261-0.47313 0.06214 0.03248-0.15865 0.13935-0.29047 0.28246-0.35779zm-0.16289 0.80596c-0.08144-0.09039-0.13135-0.21044-0.13135-0.34225 0-0.0056 4.71e-4 -0.01083 4.71e-4 -0.01601 0.0089 0 0.26222 0.0061 0.52632-0.07297 0.01459 0.02872 0.02872 0.05838 0.0419 0.08709-0.0066 0.0019-0.01365 0.0038-0.02024 0.0061-0.27682 0.08945-0.4171 0.33802-0.4171 0.33802zm0.3818 0.17042c-0.11958 0-0.22832-0.04096-0.31542-0.10875 0.0019-0.0038 0.10122-0.21514 0.40251-0.32012 9.41e-4 -4.71e-4 0.0024-9.42e-4 0.0033-9.42e-4 0.07203 0.18737 0.10169 0.34414 0.10922 0.38933-0.0612 0.02589-0.12899 0.04049-0.19961 0.04049zm0.28623-0.08756c-0.0052-0.03107-0.03248-0.18125-0.0998-0.36626 0.16571-0.02636 0.3093 0.01883 0.31965 0.0226-0.0226 0.14264-0.10498 0.26599-0.21985 0.34366zm-0.13088-0.44723c-0.0038-0.0089-0.0075-0.01742-0.0113-0.02636-0.01083-0.02542-0.02213-0.0499-0.03437-0.07438 0.20243-0.08239 0.28482-0.20149 0.28576-0.2029 0.07156 0.08756 0.11534 0.19914 0.11675 0.3206-0.0071-0.0014-0.18078-0.03907-0.35684-0.01695z" stroke-width=".0047077"/>
</svg>
