<?xml version="1.0" encoding="utf-8"?>
<svg fill="currentColor" width="16" height="16" viewBox="0 0 1024 1024" xmlns="http://www.w3.org/2000/svg">
    <path d="M294 464H767c44 0 61 106 62 224 0 118-44 224-80 224H641c-4 0-7-4-5-8 5-13 14-40 10-63-5-32-17-59-17-59s8 24-26 69c-31 41-59 56-68 60-2 1-4 1-6 1H184c-24 0-44-20-43-45 0-7 3-15 7-21l49-81c36-59 54-127 54-196V507c0-24 19-43 43-43zM508 242V91c0-24 19-43 43-43s43 19 43 43v151h161c24 0 43 19 43 43V328c0 24-19 43-43 43H324c-24 0-43-19-43-43v-43c0-24 19-43 43-43h184z"/>
</svg>
