<svg width="16" height="16" viewBox="0 0 1032 1024" xmlns="http://www.w3.org/2000/svg" fill="currentColor"><path d="M563.2 42.666667v640c0 23.466667-19.2 42.666667-42.666667 42.666666s-42.666667-19.2-42.666666-42.666666V42.666667c0-23.466667 19.2-42.666667 42.666666-42.666667s42.666667 19.2 42.666667 42.666667"  /><path d="M806.1952 457.275733L550.5792 712.900267a42.7776 42.7776 0 0 1-60.330667 0c-16.597333-16.605867-16.597333-43.776 0-60.330667l255.616-255.624533a42.7776 42.7776 0 0 1 60.330667 0 42.7776 42.7776 0 0 1 0 60.330666"  /><path d="M490.350933 712.8832L234.734933 457.275733a42.7776 42.7776 0 0 1 0-60.330666c16.597333-16.605867 43.776-16.605867 60.330667 0l255.616 255.616a42.7776 42.7776 0 0 1 0 60.330666 42.7776 42.7776 0 0 1-60.330667 0"  /><path d="M904.533333 1024H136.533333c-70.570667 0-128-57.429333-128-128V640c0-23.594667 19.072-42.666667 42.666667-42.666667s42.666667 19.072 42.666667 42.666667v256c0 23.552 19.114667 42.666667 42.666666 42.666667h768c23.552 0 42.666667-19.114667 42.666667-42.666667V640c0-23.594667 19.072-42.666667 42.666667-42.666667s42.666667 19.072 42.666666 42.666667v256c0 70.570667-57.429333 128-128 128"  /></svg>
