<?xml version="1.0" encoding="utf-8"?>
<svg width="16" height="16" viewBox="0 0 16 16" xmlns="http://www.w3.org/2000/svg">
  <rect x="0.5" y="0.5" width="15" height="15" rx="2" fill="#2154ae"/>
  <path d="M3.5 9.93 5.67 9.72Q5.87 10.81 6.47 11.33Q7.07 11.84 8.09 11.84Q9.17 11.84 9.72 11.38Q10.27 10.93 10.27 10.31Q10.27 9.92 10.03 9.65Q9.8 9.37 9.23 9.17Q8.84 9.03 7.44 8.68Q5.64 8.24 4.92 7.59Q3.9 6.67 3.9 5.36Q3.9 4.52 4.38 3.78Q4.86 3.04 5.76 2.66Q6.66 2.27 7.94 2.27Q10.02 2.27 11.08 3.19Q12.13 4.1 12.18 5.63L9.95 5.72Q9.8 4.87 9.33 4.5Q8.86 4.12 7.92 4.12Q6.94 4.12 6.39 4.52Q6.04 4.78 6.04 5.21Q6.04 5.6 6.37 5.88Q6.79 6.24 8.42 6.62Q10.05 7.01 10.84 7.42Q11.62 7.83 12.06 8.54Q12.5 9.26 12.5 10.31Q12.5 11.26 11.97 12.09Q11.44 12.92 10.48 13.32Q9.51 13.73 8.07 13.73Q5.97 13.73 4.84 12.76Q3.72 11.79 3.5 9.93Z" fill="white"/>
</svg>
