<svg width="16" height="16" viewBox="0 0 1024 1024" xmlns="http://www.w3.org/2000/svg" fill="currentColor"><path d="M888.96 473.28c42.24-25.28 67.2-68.16 67.2-115.52v-80c0-73.6-59.84-133.12-133.12-133.12H200.32c-73.6 0-133.12 59.84-133.12 133.12v79.68c0 47.36 24.96 90.56 67.2 115.52 13.76 8 21.76 22.4 21.76 38.08s-8 30.08-21.76 38.08c-41.92 24.96-67.2 68.16-67.2 115.52v79.68a133.44 133.44 0 0 0 133.12 133.12h622.4c73.6 0 133.12-59.84 133.12-133.12v-79.68c0-47.36-25.28-90.56-67.2-115.52-13.76-8-21.76-22.4-21.76-38.08 0.32-15.36 8.32-29.76 22.08-37.76z m-200.32 222.08c0 24.64-19.84 44.48-44.48 44.48-24.64 0-44.48-19.84-44.48-44.48v-44.48c0-24.64 19.84-44.48 44.48-44.48 24.64 0 44.48 19.84 44.48 44.48v44.48z m0-166.72c0 24.64-19.84 44.48-44.48 44.48-24.64 0-44.48-19.84-44.48-44.48v-44.48c0-24.64 19.84-44.48 44.48-44.48 24.64 0 44.48 19.84 44.48 44.48v44.48z m0-166.72c0 24.64-19.84 44.48-44.48 44.48-24.64 0-44.48-19.84-44.48-44.48V317.44c0-24.64 19.84-44.48 44.48-44.48 24.64 0 44.48 19.84 44.48 44.48v44.48z" /></svg>
