<svg width="64" height="64" xmlns="http://www.w3.org/2000/svg">
  <!-- Qt style computer monitor icon with site blue colors -->
  <defs>
    <linearGradient id="monitorGrad" x1="0%" y1="0%" x2="0%" y2="100%">
      <stop offset="0%" style="stop-color:#f0f0f0"/>
      <stop offset="100%" style="stop-color:#d8d8d8"/>
    </linearGradient>
    <linearGradient id="screenGrad" x1="0%" y1="0%" x2="0%" y2="100%">
      <stop offset="0%" style="stop-color:#2a2a2a"/>
      <stop offset="100%" style="stop-color:#1a1a1a"/>
    </linearGradient>
  </defs>

  <!-- Monitor outer frame -->
  <rect x="12" y="14" width="40" height="30" fill="url(#monitorGrad)" stroke="#a0a0a0" stroke-width="1.5" rx="2"/>

  <!-- Screen bezel -->
  <rect x="15" y="17" width="34" height="24" fill="url(#screenGrad)" stroke="#808080" stroke-width="1" rx="1"/>

  <!-- Screen content - Qt style with blue accents -->
  <rect x="17" y="19" width="30" height="20" fill="#1e1e1e"/>

  <!-- Window on screen -->
  <rect x="19" y="21" width="12" height="10" fill="#3c3c3c" stroke="#505050" stroke-width="0.5" rx="1"/>
  <rect x="19" y="21" width="12" height="3" fill="#4a90d9"/>

  <!-- Qt blue accent lines on screen -->
  <line x1="33" y1="23" x2="43" y2="23" stroke="#5b9bd5" stroke-width="1"/>
  <line x1="33" y1="26" x2="43" y2="26" stroke="#4a90d9" stroke-width="1"/>
  <line x1="33" y1="29" x2="40" y2="29" stroke="#6aaae0" stroke-width="1"/>

  <!-- Monitor stand -->
  <rect x="28" y="44" width="8" height="6" fill="#c0c0c0" stroke="#a0a0a0" stroke-width="1" rx="1"/>
  <rect x="20" y="50" width="24" height="4" fill="#c0c0c0" stroke="#a0a0a0" stroke-width="1" rx="1"/>

  <!-- 3D highlights on monitor -->
  <line x1="13" y1="15" x2="13" y2="43" stroke="#ffffff" opacity="0.4"/>
  <line x1="13" y1="15" x2="51" y2="15" stroke="#ffffff" opacity="0.4"/>
</svg>
